<?xml version="1.0" standalone="no"?>
<!DOCTYPE svg PUBLIC "-//W3C//DTD SVG 20010904//EN"
 "http://www.w3.org/TR/2001/REC-SVG-20010904/DTD/svg10.dtd">
<svg version="1.0" xmlns="http://www.w3.org/2000/svg"
 width="300.000000pt" height="300.000000pt" viewBox="0 0 300.000000 300.000000"
 preserveAspectRatio="xMidYMid meet">
<metadata>
Created by potrace 1.16, written by Peter Selinger 2001-2019
</metadata>
<g transform="translate(0.000000,300.000000) scale(0.100000,-0.100000)"
fill="#000000" stroke="none">
<path d="M1655 2508 c6 -27 5 -30 -11 -24 -15 6 -14 2 5 -18 32 -34 35 -33 27
9 -8 43 2 44 39 5 26 -27 34 -30 84 -28 l56 2 -55 3 c-47 4 -60 10 -97 44 -23
21 -45 39 -49 39 -3 0 -2 -14 1 -32z"/>
<path d="M1580 2503 c1 -5 7 -19 16 -33 14 -23 14 -23 9 -2 -4 13 -2 22 5 22
6 0 8 5 5 10 -7 12 -35 14 -35 3z"/>
<path d="M1888 2443 c7 -3 16 -2 19 1 4 3 -2 6 -13 5 -11 0 -14 -3 -6 -6z"/>
<path d="M2015 2403 c17 -8 32 -17 34 -19 4 -3 -210 -248 -241 -276 -11 -10
-34 -19 -52 -19 l-31 -1 28 -7 c28 -6 28 -6 -74 -121 -56 -63 -105 -119 -109
-123 -4 -5 -105 120 -225 278 -119 157 -222 288 -228 291 -7 2 -148 3 -314 2
l-302 -3 374 -490 c319 -417 372 -492 361 -505 -7 -8 -164 -189 -349 -402
-185 -213 -337 -389 -337 -392 0 -3 65 -6 144 -6 l145 0 277 316 c222 253 280
313 288 302 6 -8 115 -150 241 -316 l230 -302 303 0 c240 0 302 3 296 13 -8
12 -241 321 -567 751 -104 136 -191 255 -194 263 -3 7 6 26 20 41 14 15 126
142 248 282 122 140 226 260 231 265 6 6 16 1 30 -15 l20 -25 -16 28 c-17 28
-17 28 31 83 26 31 59 69 72 85 l24 29 -151 0 c-89 0 -153 -4 -157 -10 -4 -6
-17 -4 -35 5 -16 8 -33 15 -37 15 -4 -1 6 -8 22 -17z m-824 -365 c84 -112 330
-436 546 -721 216 -285 393 -522 393 -528 0 -5 -37 -9 -82 -9 l-83 0 -120 157
c-66 87 -305 398 -530 693 -226 294 -423 552 -439 573 l-28 37 95 0 95 0 153
-202z"/>
<path d="M1611 2387 c-13 -21 -12 -21 5 -5 10 10 16 20 13 22 -3 3 -11 -5 -18
-17z"/>
<path d="M1572 2300 c0 -14 2 -19 5 -12 2 6 2 18 0 25 -3 6 -5 1 -5 -13z"/>
<path d="M1699 2298 c7 -10 10 -25 7 -34 -5 -14 -4 -15 9 -4 12 10 18 10 33
-1 15 -13 16 -12 3 3 -7 10 -10 25 -7 34 5 14 4 15 -9 4 -12 -10 -18 -10 -32
1 -16 13 -17 12 -4 -3z"/>
<path d="M1572 2245 c0 -16 2 -22 5 -12 2 9 2 23 0 30 -3 6 -5 -1 -5 -18z"/>
<path d="M1580 2203 c0 -6 9 -21 21 -34 l20 -24 -17 30 c-24 39 -24 40 -24 28z"/>
<path d="M2312 2020 c0 -14 2 -19 5 -12 2 6 2 18 0 25 -3 6 -5 1 -5 -13z"/>
<path d="M2322 1930 c0 -19 2 -27 5 -17 2 9 2 25 0 35 -3 9 -5 1 -5 -18z"/>
<path d="M2160 1920 c0 -13 5 -18 15 -14 12 5 13 10 4 20 -15 19 -19 18 -19
-6z"/>
<path d="M2311 1844 c0 -11 3 -14 6 -6 3 7 2 16 -1 19 -3 4 -6 -2 -5 -13z"/>
<path d="M2023 1810 c-9 -23 -8 -28 3 -23 8 3 14 -1 14 -11 0 -21 13 -20 37 2
10 9 14 14 9 10 -20 -15 -36 -8 -36 16 0 36 -14 39 -27 6z"/>
<path d="M2119 1823 c-13 -16 -12 -17 4 -4 9 7 17 15 17 17 0 8 -8 3 -21 -13z"/>
<path d="M2241 1774 c0 -11 3 -14 6 -6 3 7 2 16 -1 19 -3 4 -6 -2 -5 -13z"/>
<path d="M1845 1738 c-16 -18 -23 -27 -15 -20 22 19 42 15 35 -8 -5 -17 -2
-20 22 -19 16 1 21 3 11 6 -11 3 -18 17 -20 39 l-3 36 -30 -34z"/>
<path d="M1979 1743 l-24 -28 28 24 c25 23 32 31 24 31 -2 0 -14 -12 -28 -27z"/>
<path d="M2276 1735 c-3 -9 -10 -13 -16 -10 -6 4 -10 -7 -10 -27 l1 -33 20 38
c11 22 18 41 16 43 -3 3 -7 -2 -11 -11z"/>
</g>
</svg>
