<svg width="48" height="48" viewBox="0 0 48 48" xmlns="http://www.w3.org/2000/svg">
  <!-- Twitter bird (faded behind) -->
  <path d="M42 12.3c-1.5.7-3 1.2-4.7 1.4 1.7-1 2.9-2.6 3.5-4.4-1.6.9-3.3 1.6-5.2 1.9-1.5-1.6-3.6-2.5-5.9-2.5-4.5 0-8.1 3.6-8.1 8.1 0 .6.1 1.2.2 1.7-6.7-.3-12.6-3.5-16.6-8.2-.7 1.2-1.1 2.6-1.1 4 .0 2.8 1.4 5.3 3.6 6.8-1.3 0-2.5-.4-3.6-1v.1c0 3.9 2.8 7.2 6.6 8-.7.2-1.5.3-2.3.3-.6 0-1.1-.1-1.7-.2 1.1 3.5 4.3 6 8.1 6.1-2.9 2.3-6.5 3.6-10.4 3.6-.7 0-1.3 0-2-.1 3.7 2.4 8.2 3.8 13 3.8 15.6 0 24.1-12.9 24.1-24.1 0-.4 0-.9 0-1.3 1.6-1.2 3-2.6 4.1-4.2z" fill="#1DA1F2" opacity="0.4"></path>
  
  <!-- X logo (on top) -->
  <path d="M17.6 14h4.2l4.2 5.4L30 14h4l-6.4 7.5L34 32h-4.3l-5.2-6.6L19 32h-4l6.6-7.8L14 14zm5.2 7.4l-1.5 1.7L25 28.3l1.6-1.8z" fill="black"></path>
</svg>
